<svg id="Layer_1" data-name="Layer 1" xmlns="http://www.w3.org/2000/svg" viewBox="0 0 98.98 95.53"><title>instructor</title><path d="M53.54,91.3A1.55,1.55,0,0,1,52,92.85H45.06a1.55,1.55,0,0,1,0-3.1H52A1.54,1.54,0,0,1,53.54,91.3Zm1.67-48.54a8.54,8.54,0,1,1-8.54-8.54A8.55,8.55,0,0,1,55.21,42.76Zm-3.09,0a5.45,5.45,0,1,0-5.45,5.45A5.46,5.46,0,0,0,52.12,42.76ZM99.49,18V37.23a3.28,3.28,0,0,1-2.94,3.26v52.9a6.67,6.67,0,0,1-6.66,6.66H61.18v7.11h8.31a1.56,1.56,0,0,1,0,3.11H27.55a1.56,1.56,0,0,1,0-3.11h8.32v-7.11H7.16A6.66,6.66,0,0,1,.51,93.39V26.86A6.66,6.66,0,0,1,7.16,20.2h55V18a3.28,3.28,0,0,1,3.27-3.27h30.8A3.28,3.28,0,0,1,99.49,18ZM65.25,44.61a.16.16,0,0,0,.12.17.16.16,0,0,0,.2-.06l4.85-6.09A3.25,3.25,0,0,1,73,37.4H96.22a.19.19,0,0,0,.18-.18V18a.18.18,0,0,0-.18-.18H65.42a.19.19,0,0,0-.18.18v26.6ZM93.46,40.5H88.63V82.56h4.83ZM85.54,82.56V40.5H73a.14.14,0,0,0-.14.07L68,46.65a3.24,3.24,0,0,1-2.54,1.24,3.46,3.46,0,0,1-1.09-.18,3.25,3.25,0,0,1-2.19-3.09v-13H11.51V82.55h24.7V73.43l-3.38,4.69a5.61,5.61,0,0,1-7.9,1.21l-.19-.14a5.63,5.63,0,0,1-1.2-7.78L34.63,56A7.63,7.63,0,0,1,41,52.78H53a7.51,7.51,0,0,1,4.59,1.5l7.14,5.21.11-.15a5.69,5.69,0,0,1,7.92-1.16l.06,0,0,0A5.69,5.69,0,0,1,74,66.21L70.48,71a5.72,5.72,0,0,1-3.74,2.23,5.65,5.65,0,0,1-4.21-1.07l-2.24-1.68-3.71-2.71V82.56Zm-32,0V64.69A1.54,1.54,0,0,1,56,63.44l6.17,4.5h0l2.25,1.68a2.61,2.61,0,0,0,1.91.5,2.56,2.56,0,0,0,1.7-1l3.56-4.75a2.6,2.6,0,0,0-.5-3.61l-.06,0a.08.08,0,0,1,0-.05A2.62,2.62,0,0,0,69,60.17a2.56,2.56,0,0,0-1.7,1l-1,1.37a1.54,1.54,0,0,1-2.15.32l-8.38-6.11a4.4,4.4,0,0,0-2.77-.9H41a4.55,4.55,0,0,0-3.82,2L26,73.23a2.52,2.52,0,0,0,.53,3.48l.19.14s0,0,0,0a2.52,2.52,0,0,0,3.55-.55l6.18-8.57a1.56,1.56,0,0,1,1.73-.57,1.55,1.55,0,0,1,1.07,1.47V82.56ZM3.6,26.86V82.55H8.42V30.11A1.55,1.55,0,0,1,10,28.56H62.16V23.29h-55A3.58,3.58,0,0,0,3.6,26.86Zm54.49,73.19H39v7.11H58.09Zm35.37-6.67V85.65H3.6v7.73A3.57,3.57,0,0,0,7.16,97H89.89A3.57,3.57,0,0,0,93.46,93.38ZM70.25,25.23H91.4a1.55,1.55,0,0,0,0-3.1H70.25a1.55,1.55,0,1,0,0,3.1Zm0,7.86H82.79a1.55,1.55,0,0,0,0-3.1H70.25a1.55,1.55,0,1,0,0,3.1Z" transform="translate(-0.51 -14.73)"/></svg>