<svg id="Layer_1" data-name="Layer 1" xmlns="http://www.w3.org/2000/svg" viewBox="0 0 56 56"><title>online-certificate</title><path d="M56,60H8a4,4,0,0,1-4-4V32a4,4,0,0,1,4-4h9.5a1,1,0,0,1,0,2H8a2,2,0,0,0-2,2V56a2,2,0,0,0,2,2H56a2,2,0,0,0,2-2V32a2,2,0,0,0-2-2H49.5a1,1,0,0,1,0-2H56a4,4,0,0,1,4,4V56A4,4,0,0,1,56,60Z" transform="translate(-4 -12)"/><path d="M41.5,30h-16a1,1,0,0,1,0-2h16a1,1,0,0,1,0,2Z" transform="translate(-4 -12)"/><path d="M33.87,68H30.13a2,2,0,0,1-2-2,2.45,2.45,0,0,1,0-.27L29,58.88A1,1,0,0,1,30,58h4a1,1,0,0,1,1,.88l.86,6.87A2,2,0,0,1,34.13,68a1.23,1.23,0,0,1-.27,0Zm-3-8-.75,6h3.74l-.75-6Z" transform="translate(-4 -12)"/><path d="M37,54H5a1,1,0,0,1,0-2H37a1,1,0,0,1,0,2Z" transform="translate(-4 -12)"/><path d="M32,57a1,1,0,0,1,0-2,1,1,0,0,1,1,1,1,1,0,0,1-.3.7A1.05,1.05,0,0,1,32,57Z" transform="translate(-4 -12)"/><path d="M18.5,44a4,4,0,0,1-4-4V37a1,1,0,0,1,1-1h6a1,1,0,0,1,1,1v3A4,4,0,0,1,18.5,44Zm-2-6v2a2,2,0,0,0,4,0V38Z" transform="translate(-4 -12)"/><path d="M38.65,44H18.5a1,1,0,0,1,0-2,2,2,0,0,0,2-2V16a4,4,0,0,1,8,0v2h17a1,1,0,0,1,1,1V35.1a1,1,0,0,1-2,0V20h-17a1,1,0,0,1-1-1V16a2,2,0,0,0-4,0V40a4,4,0,0,1-.5,2H38.65a1,1,0,1,1,0,2Z" transform="translate(-4 -12)"/><path d="M48.5,20h-21a1,1,0,0,1-1-1V16a2,2,0,0,0-2-2,1,1,0,0,1,0-2h21a4,4,0,0,1,4,4v3A1,1,0,0,1,48.5,20Zm-20-2h19V16a2,2,0,0,0-2-2H28a4,4,0,0,1,.54,2Z" transform="translate(-4 -12)"/><path d="M36,26H31a1,1,0,0,1,0-2h5a1,1,0,0,1,0,2Z" transform="translate(-4 -12)"/><path d="M38,30H29a1,1,0,0,1,0-2h9a1,1,0,0,1,0,2Z" transform="translate(-4 -12)"/><path d="M47,56a1,1,0,0,1-.55-.17L44,54.2l-2.45,1.63a1,1,0,0,1-1,.05A1,1,0,0,1,40,55V46a1,1,0,0,1,2,0v7.17l1.45-1a1,1,0,0,1,1.1,0l1.45,1V46a1,1,0,0,1,2,0v9a1,1,0,0,1-.53.88A1,1,0,0,1,47,56Z" transform="translate(-4 -12)"/><path d="M46,48.1h-.21L44,47.71l-1.76.37a1,1,0,0,1-1-.31L40,46.44l-1.64-.74a1,1,0,0,1-.58-.8l-.2-1.79-.89-1.56a1,1,0,0,1,0-1L37.66,39l.2-1.79a1,1,0,0,1,.58-.8l1.64-.74,1.21-1.33a1,1,0,0,1,1-.31l1.76.37,1.71-.4a1,1,0,0,1,1,.31L48,35.64l1.64.74a1,1,0,0,1,.58.8l.2,1.79.89,1.56a1,1,0,0,1,0,1l-.89,1.56-.2,1.79a1,1,0,0,1-.58.8L48,46.42l-1.21,1.33A1,1,0,0,1,46,48.1Zm-6.18-4,1.31.59a1.27,1.27,0,0,1,.33.24l1,1.06,1.41-.29a.9.9,0,0,1,.4,0l1.41.29,1-1.06a1.27,1.27,0,0,1,.33-.24l1.31-.59.16-1.43a1.07,1.07,0,0,1,.13-.38L49.32,41,48.5,39.8a1.07,1.07,0,0,1-.13-.38L48.21,38l-1.31-.6a1.27,1.27,0,0,1-.33-.24l-1-1.06-1.41.29a.9.9,0,0,1-.4,0l-1.41-.29-1,1.06a1.27,1.27,0,0,1-.33.24l-1.23.6-.16,1.43a1.07,1.07,0,0,1-.13.38l-.71,1.25.71,1.25a1.07,1.07,0,0,1,.13.38Z" transform="translate(-4 -12)"/><path d="M58.74,54H51a1,1,0,0,1,0-2h7.73a1,1,0,0,1,0,2Z" transform="translate(-4 -12)"/></svg>