<svg id="Layer_1" data-name="Layer 1" xmlns="http://www.w3.org/2000/svg" viewBox="0 0 83.83 100"><title>video-lesson</title><path d="M50.1,103.4H18L10.3,77.6a5.24,5.24,0,0,1,.8-4.7,5.17,5.17,0,0,1,4.3-2.1H84.6a5.45,5.45,0,0,1,4.3,2.1,5.29,5.29,0,0,1,.8,4.7l-7.5,25.1a1,1,0,0,1-2-.6L87.7,77a3.36,3.36,0,0,0-.5-2.9,3.32,3.32,0,0,0-2.6-1.3H15.4A3.24,3.24,0,0,0,12.3,77l7.2,24.3H50.1a1.11,1.11,0,0,1,1.1,1.1A1.1,1.1,0,0,1,50.1,103.4Z" transform="translate(-8.09 -10.4)"/><path d="M87.6,110.4H12.4A4.34,4.34,0,0,1,8.6,104l4-7.5a1,1,0,1,1,1.8,1l-4,7.5a2.17,2.17,0,0,0,.1,2.2,2.14,2.14,0,0,0,1.9,1.1H87.6a2.14,2.14,0,0,0,1.9-1.1,2.44,2.44,0,0,0,.1-2.2l-4-7.5a1,1,0,0,1,1.8-1l4,7.5a4.34,4.34,0,0,1-3.8,6.4Z" transform="translate(-8.09 -10.4)"/><path d="M69.4,45.9h-6a1.1,1.1,0,1,1,0-2.2h6a1.32,1.32,0,0,0,1.3-1.3V32.5a1.32,1.32,0,0,0-1.3-1.3H66.3a1.1,1.1,0,1,1,0-2.2h3.1a3.37,3.37,0,0,1,3.4,3.4v9.9A3.42,3.42,0,0,1,69.4,45.9Z" transform="translate(-8.09 -10.4)"/><path d="M37,45.9H31a3.37,3.37,0,0,1-3.4-3.4V32.6A3.37,3.37,0,0,1,31,29.2h2.8a1.1,1.1,0,0,1,0,2.2H31a1.32,1.32,0,0,0-1.3,1.3v9.9A1.32,1.32,0,0,0,31,43.9h6A1.11,1.11,0,0,1,38.1,45,1.1,1.1,0,0,1,37,45.9Z" transform="translate(-8.09 -10.4)"/><path d="M76.7,72.8a1.11,1.11,0,0,1-1.1-1.1V67a9.74,9.74,0,0,0-1.5-5.4,9,9,0,0,0-2-2.3c-3.6-2.9-13-8-13.1-8a1,1,0,1,1,1-1.8c.4.2,9.7,5.2,13.4,8.3a11.17,11.17,0,0,1,2.5,2.8,12,12,0,0,1,1.8,6.5v4.7A.94.94,0,0,1,76.7,72.8Z" transform="translate(-8.09 -10.4)"/><path d="M23.3,72.8a1.11,1.11,0,0,1-1.1-1.1V67A11.75,11.75,0,0,1,24,60.5a11.17,11.17,0,0,1,2.5-2.8c3.7-3,13-8,13.4-8.3a1,1,0,1,1,1,1.8c-.1.1-9.5,5.2-13.1,8a9,9,0,0,0-2,2.3,9.74,9.74,0,0,0-1.5,5.4v4.7C24.3,72.3,23.9,72.8,23.3,72.8Z" transform="translate(-8.09 -10.4)"/><path d="M50,56.4c-8,0-14.5-8-14.5-17.8S42,20.8,50,20.8s14.5,8,14.5,17.8S58,56.4,50,56.4ZM50,23c-6.8,0-12.4,7-12.4,15.6S43.2,54.2,50,54.2s12.4-7,12.4-15.6S56.8,23,50,23Z" transform="translate(-8.09 -10.4)"/><path d="M69.4,31.3a1.11,1.11,0,0,1-1.1-1.1A17.84,17.84,0,0,0,50.5,12.4h-.7A17.84,17.84,0,0,0,32,30.2a1.1,1.1,0,0,1-2.2,0A20.17,20.17,0,0,1,49.9,10.4h.7A19.89,19.89,0,0,1,70.5,30.3,1,1,0,0,1,69.4,31.3Z" transform="translate(-8.09 -10.4)"/></svg>