<svg id="Layer_1" data-name="Layer 1" xmlns="http://www.w3.org/2000/svg" viewBox="0 0 89.09 100"><title>video-lesson1</title><path d="M28.18,68.9a1.11,1.11,0,0,1-1.1-1.1v-3a1.1,1.1,0,0,1,2.2,0v3A1.11,1.11,0,0,1,28.18,68.9Z" transform="translate(-5.4 -11.3)"/><path d="M31.88,68.9a1.11,1.11,0,0,1-1.1-1.1v-3a1.1,1.1,0,0,1,2.2,0v3A1.11,1.11,0,0,1,31.88,68.9Z" transform="translate(-5.4 -11.3)"/><path d="M71.78,67.4H37a1.1,1.1,0,0,1,0-2.2h34.8a1.1,1.1,0,0,1,0,2.2Z" transform="translate(-5.4 -11.3)"/><path d="M86,76.4H14A7.38,7.38,0,0,1,6.58,69V18.7A7.32,7.32,0,0,1,14,11.3h72.1a7.45,7.45,0,0,1,7.4,7.4V69A7.47,7.47,0,0,1,86,76.4ZM14,13.6a5.16,5.16,0,0,0-5.2,5.2V69.1A5.16,5.16,0,0,0,14,74.3H86a5.16,5.16,0,0,0,5.2-5.2V18.7A5.16,5.16,0,0,0,86,13.5H14Z" transform="translate(-5.4 -11.3)"/><path d="M81.08,65.2A1.11,1.11,0,0,1,80,64.1V24.8H62.58a1.1,1.1,0,0,1,0-2.2h18.5a1.11,1.11,0,0,1,1.1,1.1V64A1.13,1.13,0,0,1,81.08,65.2Z" transform="translate(-5.4 -11.3)"/><path d="M18.88,65.2a1.11,1.11,0,0,1-1.1-1.1V23.7a1.11,1.11,0,0,1,1.1-1.1h18.4a1.1,1.1,0,1,1,0,2.2H20.08V64A1.16,1.16,0,0,1,18.88,65.2Z" transform="translate(-5.4 -11.3)"/><path d="M75.48,86.2h-51a1.05,1.05,0,0,1-.9-.5.92.92,0,0,1-.1-1l3.9-9.7a1.14,1.14,0,1,1,2.1.9l-3.2,8.2h47.6l-3.2-8.2a1.14,1.14,0,0,1,2.1-.9l3.8,9.7a1.18,1.18,0,0,1-.1,1A1.59,1.59,0,0,1,75.48,86.2Z" transform="translate(-5.4 -11.3)"/><path d="M90.38,111.3H9.58a4.33,4.33,0,0,1-3.6-2,4.27,4.27,0,0,1-.1-4.1l7.4-13.3a1.1,1.1,0,0,1,1-.6h71.2a1.1,1.1,0,0,1,1,.6L94,105.2a4,4,0,0,1-.1,4.1A4.16,4.16,0,0,1,90.38,111.3ZM15.08,93.5,8,106.3a2.12,2.12,0,0,0,0,1.9,1.7,1.7,0,0,0,1.6.9h80.7a1.7,1.7,0,0,0,1.6-.9,2.12,2.12,0,0,0,0-1.9l-7-12.7H15.08Z" transform="translate(-5.4 -11.3)"/><path d="M71.78,60.5a1.11,1.11,0,0,1-1.1-1.1V56.6a7.72,7.72,0,0,0-1.2-4.3,6.9,6.9,0,0,0-1.6-1.8C65,48.2,57.28,44,57.28,44a1.12,1.12,0,1,1,1-2c.3.2,7.9,4.3,11,6.8a9.3,9.3,0,0,1,2.1,2.3,10.32,10.32,0,0,1,1.5,5.5v2.8A1.11,1.11,0,0,1,71.78,60.5Z" transform="translate(-5.4 -11.3)"/><path d="M28.18,60.5a1.11,1.11,0,0,1-1.1-1.1V56.6a10.32,10.32,0,0,1,1.5-5.5,9.3,9.3,0,0,1,2.1-2.3c3.1-2.5,10.7-6.6,11-6.8a1.12,1.12,0,1,1,1,2,98.93,98.93,0,0,0-10.6,6.5,9.34,9.34,0,0,0-1.6,1.8,7.72,7.72,0,0,0-1.2,4.3v2.8A1.11,1.11,0,0,1,28.18,60.5Z" transform="translate(-5.4 -11.3)"/><path d="M50,48.1c-6.7,0-12.1-6.6-12.1-14.8S43.28,18.6,50,18.6s12.1,6.6,12.1,14.8S56.68,48.1,50,48.1Zm0-27.2c-5.4,0-9.9,5.6-9.9,12.5s4.4,12.5,9.9,12.5,9.9-5.6,9.9-12.5S55.38,20.9,50,20.9Z" transform="translate(-5.4 -11.3)"/></svg>